<svg width="512" height="512" viewBox="0 0 512 512" fill="none" xmlns="http://www.w3.org/2000/svg">
<path d="M353.017 192.565C406.209 192.565 448 225.918 448 297.739V426.67H363.131V306.677C363.131 275.27 349.855 253.829 320.662 253.829C298.333 253.829 285.916 268.297 280.136 282.242C277.968 287.247 278.307 294.22 278.307 301.192V426.67H194.228C194.228 426.67 195.311 214.118 194.228 194.794H278.307V231.185C283.274 215.274 310.142 192.565 353.017 192.565ZM148.531 426.669H73.6865V194.793H148.531V426.669ZM109.72 85.3335C137.332 85.3335 154.311 102.644 154.853 125.528C154.852 147.996 137.332 165.788 109.2 165.788H108.658C81.5653 165.787 64 148.062 64 125.593C64 102.688 82.0847 85.3335 109.72 85.3335Z" fill="#284E99"/>
</svg>
