<svg width="512" height="512" viewBox="0 0 512 512" fill="none" xmlns="http://www.w3.org/2000/svg">
<path d="M431.616 179.2C431.616 179.2 428.032 154.368 417.28 143.36C403.712 129.024 388.352 129.024 381.44 128C331.264 124.416 256 124.416 256 124.416C256 124.416 180.736 124.416 130.56 128C123.392 129.024 108.288 129.024 94.7201 143.36C83.712 154.368 80.3841 179.2 80.3841 179.2C80.3841 179.2 76.8 208.384 76.8 237.568V264.96C76.8 294.144 80.3841 323.328 80.3841 323.328C80.3841 323.328 83.9681 348.416 94.4641 359.168C108.288 373.504 126.208 373.248 134.144 374.528C162.816 377.344 256 378.368 256 378.368C256 378.368 331.264 378.368 381.44 374.528C388.352 373.76 403.712 373.504 417.28 359.168C428.032 348.416 431.616 323.328 431.616 323.328C431.616 323.328 435.2 294.144 435.2 264.96V237.568C435.2 208.384 431.616 179.2 431.616 179.2ZM218.88 298.24V196.864L315.648 247.552L218.88 298.24Z" fill="#284E99"/>
</svg>
