<svg width="512" height="512" viewBox="0 0 512 512" fill="none" xmlns="http://www.w3.org/2000/svg">
<path fill-rule="evenodd" clip-rule="evenodd" d="M256 76.7998C207.334 76.7998 201.216 77.0046 182.118 77.875C163.046 78.7454 150.016 81.7918 138.598 86.2206C126.669 90.7006 115.814 97.7406 106.854 106.88C97.7662 115.84 90.7262 126.669 86.195 138.624C81.7918 150.016 78.771 163.046 77.875 182.144C77.0046 201.241 76.7998 207.309 76.7998 256C76.7998 304.691 77.0046 310.784 77.875 329.881C78.7454 348.953 81.7918 361.984 86.2206 373.401C90.7006 385.331 97.7406 396.185 106.88 405.145C115.84 414.233 126.669 421.273 138.624 425.805C150.016 430.208 163.046 433.229 182.144 434.125C201.241 434.995 207.334 435.2 256 435.2C304.665 435.2 310.784 434.995 329.881 434.125C348.953 433.254 361.984 430.208 373.401 425.779C385.331 421.299 396.185 414.259 405.145 405.12C414.233 396.16 421.273 385.331 425.805 373.376C430.208 361.984 433.229 348.953 434.125 329.856C434.995 310.758 435.2 304.665 435.2 256C435.2 207.334 434.995 201.216 434.125 182.118C433.254 163.046 430.208 150.016 425.779 138.598C421.282 126.641 414.232 115.808 405.12 106.854C396.166 97.7425 385.333 90.6924 373.376 86.195C361.984 81.7918 348.953 78.771 329.856 77.875C310.758 77.0046 304.691 76.7998 256 76.7998ZM256 109.081C303.846 109.081 309.504 109.261 328.422 110.131C345.881 110.925 355.379 113.843 361.702 116.301C370.048 119.552 376.038 123.443 382.31 129.689C388.582 135.961 392.448 141.952 395.699 150.297C398.157 156.621 401.075 166.118 401.869 183.577C402.739 202.47 402.893 208.153 402.893 256C402.893 303.846 402.739 309.504 401.869 328.422C401.075 345.881 398.157 355.379 395.699 361.702C392.828 369.484 388.254 376.525 382.31 382.31C376.525 388.249 369.485 392.806 361.702 395.699C355.379 398.157 345.881 401.075 328.422 401.869C309.529 402.739 303.846 402.893 256 402.893C208.128 402.893 202.496 402.739 183.577 401.869C166.118 401.075 156.621 398.157 150.297 395.699C142.514 392.832 135.472 388.257 129.689 382.31C123.744 376.527 119.169 369.485 116.301 361.702C113.843 355.379 110.925 345.881 110.131 328.422C109.261 309.529 109.107 303.846 109.107 256C109.107 208.153 109.261 202.496 110.131 183.577C110.925 166.118 113.843 156.621 116.301 150.297C119.552 141.952 123.443 135.961 129.689 129.689C135.475 123.75 142.515 119.193 150.297 116.301C156.621 113.843 166.118 110.925 183.577 110.131C202.47 109.261 208.153 109.081 256 109.081Z" fill="#284E99"/>
<path fill-rule="evenodd" clip-rule="evenodd" d="M256 315.802C248.15 315.802 240.377 314.256 233.125 311.252C225.872 308.247 219.283 303.844 213.732 298.294C208.181 292.743 203.778 286.153 200.774 278.901C197.77 271.649 196.224 263.876 196.224 256.026C196.224 248.176 197.77 240.403 200.774 233.15C203.778 225.898 208.181 219.308 213.732 213.758C219.283 208.207 225.872 203.804 233.125 200.8C240.377 197.796 248.15 196.25 256 196.25C271.853 196.25 287.058 202.548 298.268 213.758C309.478 224.968 315.776 240.172 315.776 256.026C315.776 271.879 309.478 287.084 298.268 298.294C287.058 309.504 271.853 315.802 256 315.802ZM256 163.891C243.904 163.891 231.927 166.274 220.751 170.903C209.576 175.532 199.422 182.316 190.869 190.869C182.316 199.422 175.531 209.576 170.902 220.752C166.274 231.927 163.891 243.904 163.891 256C163.891 268.096 166.274 280.073 170.902 291.249C175.531 302.424 182.316 312.578 190.869 321.131C199.422 329.684 209.576 336.469 220.751 341.098C231.927 345.726 243.904 348.109 256 348.109C280.429 348.109 303.857 338.405 321.131 321.131C338.404 303.857 348.109 280.429 348.109 256C348.109 231.571 338.404 208.143 321.131 190.869C303.857 173.596 280.429 163.891 256 163.891ZM374.912 162.227C374.912 168.002 372.618 173.54 368.535 177.623C364.452 181.706 358.914 184 353.139 184C347.365 184 341.827 181.706 337.743 177.623C333.66 173.54 331.366 168.002 331.366 162.227C331.366 156.456 333.659 150.921 337.74 146.841C341.82 142.76 347.355 140.467 353.126 140.467C358.897 140.467 364.432 142.76 368.513 146.841C372.594 150.921 374.912 156.456 374.912 162.227Z" fill="#284E99"/>
</svg>
